<?xml version="1.0" encoding="UTF-8"?>
<!DOCTYPE svg PUBLIC "-//W3C//DTD SVG 1.1//EN" "http://www.w3.org/Graphics/SVG/1.1/DTD/svg11.dtd">
<svg xmlns="http://www.w3.org/2000/svg" version="1.1" width="512px" height="512px" style="shape-rendering:geometricPrecision; text-rendering:geometricPrecision; image-rendering:optimizeQuality; fill-rule:evenodd; clip-rule:evenodd" xmlns:xlink="http://www.w3.org/1999/xlink">
<g><path style="opacity:0.977" fill="#030201" d="M 202.5,123.5 C 200.799,127.025 197.965,128.692 194,128.5C 186.891,127.24 179.891,125.574 173,123.5C 167.39,124.113 163.057,126.779 160,131.5C 156.135,140.068 151.635,148.235 146.5,156C 134.826,156.485 123.159,156.319 111.5,155.5C 105.698,200.778 100.365,246.111 95.5,291.5C 104.02,291.924 112.52,292.59 121,293.5C 125.267,290.913 129.767,288.746 134.5,287C 148.856,284.677 159.189,290.01 165.5,303C 182.15,299.492 194.15,305.326 201.5,320.5C 218.602,317.214 229.602,323.88 234.5,340.5C 254.764,340.433 265.098,350.433 265.5,370.5C 264.948,374.035 263.782,377.368 262,380.5C 257.335,387.325 252.502,393.991 247.5,400.5C 238.489,413.554 226.489,417.054 211.5,411C 204.024,406.535 199.69,400.035 198.5,391.5C 182.072,392.059 172.072,384.392 168.5,368.5C 152.902,369.377 142.902,362.377 138.5,347.5C 114.977,345.081 105.643,332.414 110.5,309.5C 109.975,308.808 109.308,308.308 108.5,308C 103.115,307.786 97.7813,307.286 92.5,306.5C 86.3822,315.478 77.8822,320.478 67,321.5C 47.2026,318.796 27.3692,316.296 7.5,314C 3.99526,313.754 1.32859,312.254 -0.5,309.5C -0.5,306.833 -0.5,304.167 -0.5,301.5C 1.69323,299.279 4.35989,297.946 7.5,297.5C 8.26253,298.268 9.26253,298.768 10.5,299C 26.8816,300.615 43.2149,302.615 59.5,305C 73.35,307.313 80.35,301.48 80.5,287.5C 85.7897,243.149 91.2897,198.816 97,154.5C 98.0498,145.832 98.7164,137.166 99,128.5C 97.4019,123.901 94.2353,121.068 89.5,120C 69.8735,117.088 50.2068,114.588 30.5,112.5C 24.1066,110.709 22.2733,106.709 25,100.5C 25.8333,99.6667 26.6667,98.8333 27.5,98C 49.9317,99.095 72.2651,101.428 94.5,105C 110.287,111.06 116.954,122.56 114.5,139.5C 122.234,140.101 129.901,140.601 137.5,141C 141.206,133.754 145.039,126.587 149,119.5C 157.118,110.238 167.285,106.738 179.5,109C 185.5,110.667 191.5,112.333 197.5,114C 201.39,115.945 203.057,119.112 202.5,123.5 Z"/></g>
<g><path style="opacity:0.981" fill="#030201" d="M 480.5,112.5 C 459.404,114.683 438.404,117.516 417.5,121C 414.894,122.938 413.061,125.438 412,128.5C 417.752,181.517 423.918,234.517 430.5,287.5C 430.554,301.061 437.221,306.894 450.5,305C 468.355,302.729 486.022,300.229 503.5,297.5C 506.64,297.946 509.307,299.279 511.5,301.5C 511.5,304.167 511.5,306.833 511.5,309.5C 509.671,312.254 507.005,313.754 503.5,314C 483.458,316.339 463.458,318.839 443.5,321.5C 429.673,319.999 420.673,312.666 416.5,299.5C 409.858,298.336 403.192,298.169 396.5,299C 414.046,314.913 413.713,330.58 395.5,346C 386.432,351.814 376.766,352.981 366.5,349.5C 361.624,354.721 356.624,359.887 351.5,365C 342.038,370.647 332.038,371.98 321.5,369C 317.2,374.301 312.534,379.301 307.5,384C 300.833,388.5 293.499,390.166 285.5,389C 281.392,387.188 279.392,384.021 279.5,379.5C 280.836,377.693 282.503,376.193 284.5,375C 289.056,374.891 293.389,373.891 297.5,372C 301.702,368.133 305.535,363.967 309,359.5C 309.507,358.004 309.007,356.837 307.5,356C 303.957,352.951 300.291,350.118 296.5,347.5C 294.539,345.037 292.372,342.703 290,340.5C 289.453,330.53 293.619,327.697 302.5,332C 308.705,337.709 315.039,343.209 321.5,348.5C 330.263,358.059 338.763,357.726 347,347.5C 348.977,344.688 351.144,342.022 353.5,339.5C 349.321,335.588 344.988,331.921 340.5,328.5C 336.046,325.384 332.713,321.384 330.5,316.5C 332.294,308.602 336.627,306.769 343.5,311C 350.413,317.754 357.747,323.92 365.5,329.5C 370.086,335.252 376.086,337.086 383.5,335C 396.66,326.194 396.66,317.694 383.5,309.5C 353.693,283.198 323.693,257.032 293.5,231C 277.231,229.193 262.897,223.026 250.5,212.5C 242.867,222.238 234.867,231.738 226.5,241C 207.468,254.243 187.468,255.909 166.5,246C 159.3,240.094 156.8,232.594 159,223.5C 177.524,191.112 196.024,158.779 214.5,126.5C 220.82,117.503 229.487,112.336 240.5,111C 252.469,109.487 264.469,108.82 276.5,109C 279.215,109.875 280.548,111.708 280.5,114.5C 280.747,117.505 279.747,120.005 277.5,122C 264.569,124.072 251.569,125.739 238.5,127C 233.822,128.676 229.989,131.509 227,135.5C 209.586,165.997 191.919,196.331 174,226.5C 173.333,228.5 173.333,230.5 174,232.5C 192.471,241.524 208.805,238.524 223,223.5C 230.073,213.09 237.906,203.257 246.5,194C 249.257,193.416 251.923,193.75 254.5,195C 276.67,218.832 301.336,221.832 328.5,204C 335.5,198.333 341.833,192 347.5,185C 355.865,183.072 359.365,186.238 358,194.5C 346.75,210.54 331.916,221.873 313.5,228.5C 330.912,243.921 348.579,258.921 366.5,273.5C 371.139,277.968 375.972,282.301 381,286.5C 382.255,285.789 383.421,284.956 384.5,284C 394.494,283.5 404.494,283.334 414.5,283.5C 414.508,275.568 413.508,267.902 411.5,260.5C 407.577,222.783 403.244,185.116 398.5,147.5C 391.554,148.881 384.554,149.381 377.5,149C 359.962,139.065 342.295,129.398 324.5,120C 316.154,119.71 307.821,119.71 299.5,120C 297.266,118.362 295.933,116.195 295.5,113.5C 295.128,110.077 296.461,107.577 299.5,106C 315.874,102.069 331.207,104.402 345.5,113C 357.004,119.92 368.671,126.586 380.5,133C 385.838,133.315 391.172,133.148 396.5,132.5C 396.681,118.645 403.347,109.479 416.5,105C 438.735,101.428 461.068,99.095 483.5,98C 487.254,101.249 488.087,105.082 486,109.5C 484.736,111.607 482.903,112.607 480.5,112.5 Z"/></g>
<g><path style="opacity:0.992" fill="#eb5474" d="M 30.5,112.5 C 50.2068,114.588 69.8735,117.088 89.5,120C 94.2353,121.068 97.4019,123.901 99,128.5C 98.7164,137.166 98.0498,145.832 97,154.5C 91.2897,198.816 85.7897,243.149 80.5,287.5C 74.4515,289.508 68.4515,289.841 62.5,288.5C 72.9857,272.889 69.9857,260.722 53.5,252C 36.7894,249.013 27.1228,255.846 24.5,272.5C 24.9089,276.65 25.9089,280.65 27.5,284.5C 21.4836,284.407 15.4836,284.074 9.5,283.5C 16.1362,226.44 23.1362,169.44 30.5,112.5 Z"/></g>
<g><path style="opacity:1" fill="#f09e5b" d="M 295.5,113.5 C 295.933,116.195 297.266,118.362 299.5,120C 307.821,119.71 316.154,119.71 324.5,120C 342.295,129.398 359.962,139.065 377.5,149C 384.554,149.381 391.554,148.881 398.5,147.5C 403.244,185.116 407.577,222.783 411.5,260.5C 400.448,261.117 389.448,262.284 378.5,264C 374.625,267.381 370.625,270.547 366.5,273.5C 348.579,258.921 330.912,243.921 313.5,228.5C 331.916,221.873 346.75,210.54 358,194.5C 359.365,186.238 355.865,183.072 347.5,185C 341.833,192 335.5,198.333 328.5,204C 301.336,221.832 276.67,218.832 254.5,195C 251.923,193.75 249.257,193.416 246.5,194C 237.906,203.257 230.073,213.09 223,223.5C 208.805,238.524 192.471,241.524 174,232.5C 173.333,230.5 173.333,228.5 174,226.5C 191.919,196.331 209.586,165.997 227,135.5C 229.989,131.509 233.822,128.676 238.5,127C 251.569,125.739 264.569,124.072 277.5,122C 279.747,120.005 280.747,117.505 280.5,114.5C 285.518,114.387 290.518,114.053 295.5,113.5 Z"/></g>
<g><path style="opacity:0.992" fill="#5b9bec" d="M 480.5,112.5 C 487.864,169.44 494.864,226.44 501.5,283.5C 496.306,283.893 491.14,284.56 486,285.5C 484.615,285.486 483.449,285.152 482.5,284.5C 489.029,269.245 484.696,258.411 469.5,252C 456.017,249.492 446.85,254.659 442,267.5C 440.98,275.788 443.146,283.122 448.5,289.5C 442.25,291.174 436.25,290.507 430.5,287.5C 423.918,234.517 417.752,181.517 412,128.5C 413.061,125.438 414.894,122.938 417.5,121C 438.404,117.516 459.404,114.683 480.5,112.5 Z"/></g>
<g><path style="opacity:1" fill="#f7c194" d="M 202.5,123.5 C 206.6,124.192 210.6,125.192 214.5,126.5C 196.024,158.779 177.524,191.112 159,223.5C 156.8,232.594 159.3,240.094 166.5,246C 187.468,255.909 207.468,254.243 226.5,241C 234.867,231.738 242.867,222.238 250.5,212.5C 262.897,223.026 277.231,229.193 293.5,231C 323.693,257.032 353.693,283.198 383.5,309.5C 383.54,312.425 382.707,315.091 381,317.5C 376.819,322.856 371.653,326.856 365.5,329.5C 357.747,323.92 350.413,317.754 343.5,311C 336.627,306.769 332.294,308.602 330.5,316.5C 332.713,321.384 336.046,325.384 340.5,328.5C 336.241,337.093 329.908,343.76 321.5,348.5C 315.039,343.209 308.705,337.709 302.5,332C 293.619,327.697 289.453,330.53 290,340.5C 292.372,342.703 294.539,345.037 296.5,347.5C 291.71,353.461 286.71,359.294 281.5,365C 276.811,368.673 271.478,370.507 265.5,370.5C 265.098,350.433 254.764,340.433 234.5,340.5C 229.602,323.88 218.602,317.214 201.5,320.5C 194.15,305.326 182.15,299.492 165.5,303C 159.189,290.01 148.856,284.677 134.5,287C 129.767,288.746 125.267,290.913 121,293.5C 112.52,292.59 104.02,291.924 95.5,291.5C 100.365,246.111 105.698,200.778 111.5,155.5C 123.159,156.319 134.826,156.485 146.5,156C 151.635,148.235 156.135,140.068 160,131.5C 163.057,126.779 167.39,124.113 173,123.5C 179.891,125.574 186.891,127.24 194,128.5C 197.965,128.692 200.799,127.025 202.5,123.5 Z"/></g>
<g><path style="opacity:1" fill="#040202" d="M 62.5,288.5 C 49.5556,297.597 37.889,296.264 27.5,284.5C 25.9089,280.65 24.9089,276.65 24.5,272.5C 27.1228,255.846 36.7894,249.013 53.5,252C 69.9857,260.722 72.9857,272.889 62.5,288.5 Z"/></g>
<g><path style="opacity:1" fill="#020204" d="M 482.5,284.5 C 472.601,295.734 461.268,297.401 448.5,289.5C 443.146,283.122 440.98,275.788 442,267.5C 446.85,254.659 456.017,249.492 469.5,252C 484.696,258.411 489.029,269.245 482.5,284.5 Z"/></g>
<g><path style="opacity:1" fill="#d07b41" d="M 411.5,260.5 C 413.508,267.902 414.508,275.568 414.5,283.5C 404.494,283.334 394.494,283.5 384.5,284C 383.421,284.956 382.255,285.789 381,286.5C 375.972,282.301 371.139,277.968 366.5,273.5C 370.625,270.547 374.625,267.381 378.5,264C 389.448,262.284 400.448,261.117 411.5,260.5 Z"/></g>
<g><path style="opacity:1" fill="#dfe1e5" d="M 44.5,265.5 C 51.1926,265.685 54.0259,269.019 53,275.5C 48.7627,280.808 44.4294,280.808 40,275.5C 39.0769,271.017 40.5769,267.683 44.5,265.5 Z"/></g>
<g><path style="opacity:1" fill="#dee1e5" d="M 461.5,265.5 C 468.193,265.685 471.026,269.019 470,275.5C 465.667,280.833 461.333,280.833 457,275.5C 455.571,270.783 457.071,267.45 461.5,265.5 Z"/></g>
<g><path style="opacity:1" fill="#c7395e" d="M 9.5,283.5 C 15.4836,284.074 21.4836,284.407 27.5,284.5C 37.889,296.264 49.5556,297.597 62.5,288.5C 68.4515,289.841 74.4515,289.508 80.5,287.5C 80.35,301.48 73.35,307.313 59.5,305C 43.2149,302.615 26.8816,300.615 10.5,299C 9.26253,298.768 8.26253,298.268 7.5,297.5C 8.00423,292.798 8.6709,288.131 9.5,283.5 Z"/></g>
<g><path style="opacity:1" fill="#347dcf" d="M 501.5,283.5 C 502.329,288.131 502.996,292.798 503.5,297.5C 486.022,300.229 468.355,302.729 450.5,305C 437.221,306.894 430.554,301.061 430.5,287.5C 436.25,290.507 442.25,291.174 448.5,289.5C 461.268,297.401 472.601,295.734 482.5,284.5C 483.449,285.152 484.615,285.486 486,285.5C 491.14,284.56 496.306,283.893 501.5,283.5 Z"/></g>
<g><path style="opacity:1" fill="#ed9c5a" d="M 136.5,301.5 C 148.011,300.176 152.845,305.176 151,316.5C 148.217,320.951 145.05,325.117 141.5,329C 126.21,332.036 121.377,326.203 127,311.5C 129.696,307.639 132.863,304.306 136.5,301.5 Z"/></g>
<g><path style="opacity:1" fill="#e19c68" d="M 383.5,309.5 C 396.66,317.694 396.66,326.194 383.5,335C 376.086,337.086 370.086,335.252 365.5,329.5C 371.653,326.856 376.819,322.856 381,317.5C 382.707,315.091 383.54,312.425 383.5,309.5 Z"/></g>
<g><path style="opacity:1" fill="#ec9b59" d="M 172.5,316.5 C 182.526,316.562 187.026,321.562 186,331.5C 181.441,338.782 176.274,345.615 170.5,352C 159.034,354.871 153.534,350.371 154,338.5C 158.333,332.5 162.667,326.5 167,320.5C 168.812,319.023 170.645,317.69 172.5,316.5 Z"/></g>
<g><path style="opacity:1" fill="#df9b67" d="M 340.5,328.5 C 344.988,331.921 349.321,335.588 353.5,339.5C 351.144,342.022 348.977,344.688 347,347.5C 338.763,357.726 330.263,358.059 321.5,348.5C 329.908,343.76 336.241,337.093 340.5,328.5 Z"/></g>
<g><path style="opacity:1" fill="#ee9c5a" d="M 205.5,334.5 C 215.859,333.694 220.692,338.361 220,348.5C 214.267,357.569 207.767,366.069 200.5,374C 189.231,377.394 183.731,373.228 184,361.5C 189.754,351.297 196.921,342.297 205.5,334.5 Z"/></g>
<g><path style="opacity:1" fill="#e19d69" d="M 296.5,347.5 C 300.291,350.118 303.957,352.951 307.5,356C 309.007,356.837 309.507,358.004 309,359.5C 305.535,363.967 301.702,368.133 297.5,372C 293.389,373.891 289.056,374.891 284.5,375C 282.503,376.193 280.836,377.693 279.5,379.5C 278.828,378.733 277.995,378.066 277,377.5C 270.81,384.689 264.31,391.522 257.5,398C 254.392,399.759 251.059,400.592 247.5,400.5C 252.502,393.991 257.335,387.325 262,380.5C 263.782,377.368 264.948,374.035 265.5,370.5C 271.478,370.507 276.811,368.673 281.5,365C 286.71,359.294 291.71,353.461 296.5,347.5 Z"/></g>
<g><path style="opacity:1" fill="#ed9c5a" d="M 236.5,355.5 C 246.807,355.306 251.307,360.306 250,370.5C 244.22,379.28 238.054,387.78 231.5,396C 225.239,399.915 219.739,399.082 215,393.5C 213.632,390.262 213.299,386.928 214,383.5C 220.341,373.104 227.841,363.771 236.5,355.5 Z"/></g>
</svg>
